<mxfile host="app.diagrams.net" modified="2024-03-22T13:18:39.143Z" agent="Mozilla/5.0 (Macintosh; Intel Mac OS X 10_15_7) AppleWebKit/537.36 (KHTML, like Gecko) Chrome/122.0.0.0 Safari/537.36 Edg/122.0.0.0" version="24.0.4" etag="3CFwD8V4jxQRmAebjV3X" type="github">
  <diagram name="第 1 页" id="b0k8tSVoD-_X0UZyo48S">
    <mxGraphModel>
      <root>
        <mxCell id="0" />
        <mxCell id="1" parent="0" />
      </root>
    </mxGraphModel>
  </diagram>
</mxfile>
